# xmcd
#
# Track frame offsets:
#  150
#  15096
#  29768
#  46936
#  62355
#  76172
#  93685
#  112001
#  126323
#  141641
#
# Disc length: 2136 seconds
#
# Revision: 0
# Processed by: cddbd v1.4PL0 Copyright (c) Steve Scherf et al.
# Submitted via: AltoMP3_Maker 3.0
#
DISCID=8408560a
DTITLE=Ambush - Bouncin' Back
DYEAR=1900
DGENRE=
TTITLE0=Between The Stones And Jones
TTITLE1="L" Word
TTITLE2=Addicted To Love
TTITLE3=The Greatest Love Story
TTITLE4=Love's Highway
TTITLE5=Whatcha Gonna Do
TTITLE6=Cloud Number Nine
TTITLE7=Bouncin' Back
TTITLE8=What Can I Do
TTITLE9=She's A Runaway
EXTD=
EXTT0=
EXTT1=
EXTT2=
EXTT3=
EXTT4=
EXTT5=
EXTT6=
EXTT7=
EXTT8=
EXTT9=
PLAYORDER=
